<?xml version="1.0" encoding="UTF-8" standalone="no"?><!-- Generator: Gravit.io --><svg xmlns="http://www.w3.org/2000/svg" xmlns:xlink="http://www.w3.org/1999/xlink" style="isolation:isolate" viewBox="710.347 121.14 781.016 605.671" width="781.016pt" height="605.671pt"><defs><clipPath id="_clipPath_wjfQ9SJTS81ykVt3dLSHRcgh0e0PzhQ0"><rect x="710.347" y="121.14" width="781.016" height="605.671"/></clipPath></defs><g clip-path="url(#_clipPath_wjfQ9SJTS81ykVt3dLSHRcgh0e0PzhQ0)"><g><path d=" M 1186.096 648.635 L 738.163 603.612 C 721.181 601.905 708.797 586.753 710.504 569.771 L 749.402 182.778 C 751.109 165.794 766.261 153.412 783.243 155.119 L 1231.175 200.142 C 1248.158 201.849 1260.541 217 1258.834 233.983 L 1219.936 620.975 C 1218.23 637.958 1203.079 650.342 1186.096 648.635 Z " fill="rgb(255,247,232)"/><path d=" M 1156.058 645.616 L 882.209 310.565 L 723.688 440.129 L 710.35 572.828 C 710.314 588.534 722.204 602.004 738.156 603.611 L 1156.058 645.616 Z " fill="rgb(255,216,143)"/><path d=" M 846.56 266.948 L 760.679 161.874 C 755.253 166.278 751.313 172.51 749.859 179.751 L 731.655 360.862 L 846.56 266.948 Z " fill="rgb(89,161,165)"/><path d=" M 1216.738 631.888 C 1218.424 628.573 1219.543 624.899 1219.937 620.976 L 1252.478 297.232 L 1069.496 451.739 L 1216.738 631.888 Z " fill="rgb(181,232,224)"/><path d=" M 1231.183 200.143 L 830.98 159.917 L 1032.688 406.704 L 1256.903 219.733 C 1252.828 209.237 1243.152 201.349 1231.183 200.143 L 1231.183 200.143 Z " fill="rgb(255,120,147)"/><g><g><path d=" M 1115.115 187.868 C 1110.264 236.125 1063.64 306.457 1042.306 304.312 C 1019.803 302.051 989.688 219.886 994.128 175.707 C 997.478 142.383 1027.277 118.092 1060.686 121.45 C 1094.096 124.808 1118.464 154.544 1115.115 187.868 Z " fill="rgb(255,216,143)"/><path d=" M 1060.686 121.45 C 1053.489 120.726 1046.462 121.292 1039.828 122.949 C 1062.304 133.671 1076.742 157.602 1074.114 183.747 C 1070.601 218.703 1045.169 265.234 1023.307 287.418 C 1029.644 297.302 1036.251 303.704 1042.306 304.312 C 1063.64 306.457 1110.264 236.124 1115.115 187.868 C 1118.464 154.544 1094.096 124.808 1060.686 121.45 Z " fill="rgb(255,201,99)"/><path d=" M 1026.233 180.736 C 1027.802 165.127 1041.716 153.725 1057.285 155.29 C 1072.854 156.855 1084.22 170.798 1082.651 186.407 C 1081.082 202.016 1067.168 213.418 1051.599 211.853 C 1036.031 210.288 1024.664 196.345 1026.233 180.736 Z " fill="rgb(255,247,232)"/></g><g><path d=" M 930.391 466.342 C 925.541 514.599 878.916 584.931 857.583 582.786 C 835.08 580.525 804.965 498.36 809.405 454.181 C 812.755 420.857 842.553 396.566 875.963 399.924 C 909.373 403.282 933.741 433.019 930.391 466.342 Z " fill="rgb(255,120,147)"/><path d=" M 875.963 399.925 C 868.766 399.201 861.738 399.767 855.104 401.424 C 877.581 412.146 892.019 436.077 889.391 462.221 C 885.878 497.177 860.445 543.708 838.584 565.892 C 844.921 575.776 851.527 582.178 857.583 582.786 C 878.916 584.931 925.541 514.599 930.391 466.342 C 933.741 433.019 909.373 403.283 875.963 399.925 L 875.963 399.925 Z " fill="rgb(255,94,127)"/><path d=" M 841.51 459.211 C 843.079 443.602 856.993 432.2 872.562 433.765 C 888.13 435.33 899.497 449.273 897.928 464.882 C 896.359 480.491 882.445 491.893 866.876 490.328 C 851.307 488.763 839.941 474.82 841.51 459.211 Z " fill="rgb(255,247,232)"/></g></g></g><g><path d=" M 1296.687 326.318 C 1230.809 341.249 1176.459 406.759 1144.121 455.502 L 1143.178 468.637 L 1131.854 474.819 C 1084.147 443.633 994.211 394.874 919.102 411.897 C 833.372 431.328 779.434 516.881 798.865 602.611 C 818.296 688.342 903.849 742.28 989.58 722.849 C 1055.457 707.918 1109.807 642.408 1142.145 593.665 L 1142.907 580.247 L 1154.412 574.348 C 1202.12 605.534 1292.055 654.293 1367.164 637.27 C 1452.895 617.839 1506.832 532.286 1487.401 446.555 C 1467.971 360.824 1382.418 306.887 1296.687 326.318 L 1296.687 326.318 Z  M 976.439 664.871 C 914.426 678.926 883.932 640.883 868.617 598.212 C 867.375 594.753 866.331 591.182 865.498 587.509 C 854.395 538.522 885.218 489.632 934.206 478.529 C 982.867 467.499 1055.832 506.445 1098.484 534.703 L 1098.149 550.685 C 1070.722 593.904 1021.1 654.748 976.439 664.871 Z  M 1352.062 570.638 C 1303.4 581.667 1230.435 542.721 1187.783 514.463 C 1191.834 475.37 1262.029 399.135 1310.691 388.106 C 1365.307 375.727 1402.496 408.374 1417.731 451.183 C 1418.937 454.571 1419.954 458.066 1420.768 461.658 C 1431.872 510.644 1401.05 559.535 1352.062 570.638 L 1352.062 570.638 Z " fill="rgb(179,229,159)"/><g><path d=" M 1306.755 370.739 C 1267.597 379.614 1226.1 419.268 1193.48 462.811 C 1186.044 472.737 1172.129 475.082 1162.043 467.867 C 1156.349 463.793 1150.019 459.375 1144.125 455.504 C 1139.596 462.33 1135.489 468.836 1131.853 474.819 C 1130.814 474.14 1160.149 494.532 1164.14 497.645 C 1170.027 502.22 1178.189 508.066 1187.805 514.424 C 1190.856 509.337 1194.295 503.889 1197.927 498.308 C 1225.565 455.792 1268.775 402.699 1311.786 392.95 C 1357.005 382.701 1402.311 408.676 1417.72 451.186 C 1417.351 447.435 1416.585 443.214 1415.731 439.446 C 1404.632 390.458 1355.743 359.636 1306.755 370.739 Z " fill="rgb(149,214,164)"/><path d=" M 979.511 678.428 C 1018.669 669.553 1060.166 629.899 1092.787 586.355 C 1100.222 576.43 1114.138 574.085 1124.224 581.3 C 1129.917 585.374 1136.248 589.791 1142.141 593.663 C 1146.67 586.837 1150.777 580.331 1154.413 574.347 C 1155.453 575.027 1126.118 554.635 1122.126 551.521 C 1116.24 546.947 1108.077 541.101 1098.461 534.742 C 1095.41 539.829 1091.971 545.277 1088.34 550.858 C 1060.702 593.374 1017.491 646.468 974.48 656.216 C 929.261 666.465 884.025 640.723 868.615 598.214 C 868.984 601.965 869.68 605.951 870.534 609.721 C 881.634 658.708 930.523 689.531 979.511 678.428 Z " fill="rgb(149,214,164)"/></g></g></g></svg>